/* XPM */
static char *liveusb_creator[] = {
/* columns rows colors chars-per-pixel */
"32 32 108 2",
"   c #160202",
".  c #1F0C0D",
"X  c #171314",
"o  c #191414",
"O  c #1B1817",
"+  c #1E1E1E",
"@  c #260101",
"#  c #2B0809",
"$  c #3E0E0F",
"%  c #2E1313",
"&  c #361516",
"*  c #242424",
"=  c #2C2C2C",
"-  c #3D2221",
";  c #352C2C",
":  c #30312E",
">  c #333333",
",  c #373936",
"<  c #3B3C3B",
"1  c #440709",
"2  c #490D0E",
"3  c #5D0405",
"4  c #500608",
"5  c #540C0E",
"6  c #411212",
"7  c #4A1111",
"8  c #640405",
"9  c #630B0C",
"0  c #6C090C",
"q  c #730D0F",
"w  c #7D0809",
"e  c #720E10",
"r  c #731011",
"t  c #444443",
"y  c #464845",
"u  c #484847",
"i  c #4B4B4B",
"p  c #50514F",
"a  c #535353",
"s  c #585857",
"d  c #5B5B5B",
"f  c #624B4B",
"g  c #60625F",
"h  c #646464",
"j  c #6B6B6B",
"k  c #757575",
"l  c #7C7C7C",
"z  c #870203",
"x  c #8D0202",
"c  c #970708",
"v  c #9A090C",
"b  c #930D11",
"n  c #8F1313",
"m  c #881D1D",
"M  c #9C1012",
"N  c #9F1818",
"B  c #A30606",
"V  c #A40C0D",
"C  c #AD0909",
"Z  c #B90202",
"A  c #BA0708",
"S  c #A50F12",
"D  c #AC0F12",
"F  c #B70E11",
"G  c #BE0E12",
"H  c #AD1216",
"J  c #B31116",
"K  c #B81014",
"L  c #8B2121",
"P  c #C50405",
"I  c #CF0203",
"U  c #CC0B0E",
"Y  c #DC0709",
"T  c #D40A0C",
"R  c #D9080B",
"E  c #C30E11",
"W  c #E50507",
"Q  c #EB0304",
"!  c #F50202",
"~  c #FC0000",
"^  c #FE0D0D",
"/  c #FF1515",
"(  c #F11818",
")  c #FA1919",
"_  c #F32020",
"`  c #FF2222",
"'  c #857A6E",
"]  c #83837A",
"[  c #848484",
"{  c #898989",
"}  c #919191",
"|  c #999991",
" . c #A3A399",
".. c #AAABAC",
"X. c #B3B4B4",
"o. c #B7B8B6",
"O. c #B9B9B7",
"+. c #BEC0C2",
"@. c #C0C0C0",
"#. c #C7C8CB",
"$. c #C8C9CA",
"%. c #CACCD3",
"&. c #D3D4D9",
"*. c #DCDCDD",
"=. c #DBDCE0",
"-. c #E3E3E4",
";. c #EAEAEB",
":. c None",
/* pixels */
":.:.:.:.:.:.:.:.:.:.:.:.:.:.:.:.:.:.:.:.:.:.:.:.:.:.:.:.:.:.:.:.",
":.:.:.:.:.:.< , > : * :.:.:.:.:.:.:.:.:.:.:.:.:.:.:.:.:.:.:.:.:.",
":.:.:.:.u , u t t t < + :.:.:.:.:.:.:.:.:.:.:.:.:.:.:.:.:.:.:.:.",
":.:.:.i < t : > : : t y = * :.:.:.:.:.:.:.:.:.:.:.:.:.:.:.:.:.:.",
":.:.i < u , , , , , , < u < = :.:.:.:.:.:.:.:.:.:.:.:.:.:.:.:.:.",
":.y < i < < < < < < < < < t u = :.:.:.:.:.:.:.:.:.:.:.:.:.:.:.:.",
":.< i t t t t t t > * X O * < a > :.:.:.:.:.:.:.:.:.:.:.:.:.:.:.",
":., p t t t y t + 1 S H H G c * a > :.:.:.:.:.:.:.:.:.:.:.:.:.:.",
":., a u u u u O b H E U U U V 0 - a > :.:.:.:.:.:.:.:.:.:.:.:.:.",
":.> s u u u > 9 J U R P Q W 8 v 3 < d , :.:.:.:.:.:.:.:.:.:.:.:.",
":.= u i u u o H E Y Z 8 ^ z I R K m u d , :.:.:.:.:.:.:.:.:.:.:.",
":.:.* a u u # J R Q B ) n ( @ z U $ u u h : :.:.:.:.:.:.:.:.:.:.",
":.:.:.= s t 1 F R ! V 9 B N C Q T 2 t t u g = :.:.:.:.:.:.:.:.:.",
":.:.:.* a t . J T Q 8 _ ` ` ^ ! U & < t < k d > :.:.:.:.:.:.:.:.",
":.:.:.:.= d O S 3 3 ! ^ ) ^ ~ W M L < t k } < s , :.:.:.:.:.:.:.",
":.:.:.:.:.> p w   8 W ! ~ ! W U 6 > > j i [ k i p p :.:.:.:.:.:.",
":.:.:.:.:.= , < A S U R Y R D 7 f i a < [ j > > a p :.:.:.:.:.:.",
":.:.:.:.:.:.> < u e 4 q e 5 % ; > [ k j l u > > t t g :.:.:.:.:.",
":.:.:.:.:.:.:., t a : ; ; > a > l a { g t > > > t p d :.:.:.:.:.",
":.:.:.:.:.:.:.:., < a > > > < [ l t l u > > > < p a :.:.:.:.:.:.",
":.:.:.:.:.:.:.:.:.< < d > < { i k h t > > > t a h +.d :.:.:.:.:.",
":.:.:.:.:.:.:.:.:.:.> , d [ j k h s t < < t a h #.%.#.d :.:.:.:.",
":.:.:.:.:.:.:.:.:.:.:.+ > j j { a t t t p s h &.=.&.%.#.d :.:.:.",
":.:.:.:.:.:.:.:.:.:.:.:.= , g p u u u a a h =.;.-.=.| } #.d :.:.",
":.:.:.:.:.:.:.:.:.:.:.:.:., < s d i i a j *.;.;.;.=.u ' %.#.s :.",
":.:.:.:.:.:.:.:.:.:.:.:.:.:.:.u t p a d O.;.;.;.;.;.&.=.&.%...:.",
":.:.:.:.:.:.:.:.:.:.:.:.:.:.:.:.:.d g :.:.$.-. .g -.;.-.=...:.:.",
":.:.:.:.:.:.:.:.:.:.:.:.:.:.:.:.:.:.:.:.:.:.$.] ' ;.;.;.X.:.:.:.",
":.:.:.:.:.:.:.:.:.:.:.:.:.:.:.:.:.:.:.:.:.:.:.$.-.;.;.O.:.:.:.:.",
":.:.:.:.:.:.:.:.:.:.:.:.:.:.:.:.:.:.:.:.:.:.:.:.#.-.O.:.:.:.:.:.",
":.:.:.:.:.:.:.:.:.:.:.:.:.:.:.:.:.:.:.:.:.:.:.:.:...:.:.:.:.:.:.",
":.:.:.:.:.:.:.:.:.:.:.:.:.:.:.:.:.:.:.:.:.:.:.:.:.:.:.:.:.:.:.:."
};
