/* XPM */
static char *install-usb-gui[] = {
/* columns rows colors chars-per-pixel */
"32 32 178 2",
"   c #000000",
".  c #0D0D0D",
"X  c #131313",
"o  c gray11",
"O  c #133807",
"+  c #193D08",
"@  c #1C331F",
"#  c #1F3A21",
"$  c #232323",
"%  c #2C2C2C",
"&  c #293C2B",
"*  c #323232",
"=  c #353936",
"-  c #3B3B3B",
";  c #1C420B",
":  c #1E4B17",
">  c #214906",
",  c #2B4C08",
"<  c #265204",
"1  c #2E5102",
"2  c #2B5B0B",
"3  c #3E5F07",
"4  c #385C0A",
"5  c #315B14",
"6  c #2B4B2C",
"7  c #2E5D2C",
"8  c #314A32",
"9  c #3C443D",
"0  c #3A563C",
"q  c #2E640A",
"w  c #336B0C",
"e  c #376E11",
"r  c #36710E",
"t  c #38740F",
"y  c #3A7711",
"u  c #3D7B13",
"i  c #396428",
"p  c #633F31",
"a  c #557410",
"s  c #537D38",
"d  c #655139",
"f  c #434343",
"g  c #4B4B4B",
"h  c #4F4F50",
"j  c #435944",
"k  c #4C534C",
"l  c #525253",
"z  c #5D5D5D",
"x  c #4C6F4C",
"c  c #477843",
"v  c #487445",
"b  c #5D755A",
"n  c #655E41",
"m  c #7D5D4C",
"M  c #60605F",
"N  c #636363",
"B  c #676967",
"V  c #676968",
"C  c #696A69",
"Z  c #707171",
"A  c #7B7C7B",
"S  c #378B00",
"D  c #3D9900",
"F  c #548534",
"G  c #5C8B3B",
"H  c #49B700",
"J  c #608E13",
"K  c #6AA911",
"L  c #4E8143",
"P  c #588D4F",
"I  c #578354",
"U  c #578A52",
"Y  c #5C8C57",
"T  c #618648",
"R  c #608D41",
"E  c #659147",
"W  c #609655",
"Q  c #679E5B",
"!  c #709954",
"~  c #648B64",
"^  c #7D807D",
"/  c #779168",
"(  c #73A55C",
")  c #6EA862",
"_  c #71A865",
"`  c #7DA067",
"'  c #54D200",
"]  c #80614F",
"[  c #82837F",
"{  c #859F79",
"}  c #9E876E",
"|  c #85DD49",
" . c #8BDC55",
".. c #8CC374",
"X. c #94CF7B",
"o. c #96D27D",
"O. c #9CD675",
"+. c #84E146",
"@. c #87E449",
"#. c #89E64C",
"$. c #8BE94C",
"%. c #8EE555",
"&. c #93ED58",
"*. c #91F153",
"=. c #9AE866",
"-. c #9EF168",
";. c #A0DA7F",
":. c #A0E177",
">. c #A4E07D",
",. c #A7EA7A",
"<. c #A8F375",
"1. c #ADF47F",
"2. c #828383",
"3. c #858588",
"4. c #878985",
"5. c #8B8C8C",
"6. c #8D8E92",
"7. c #829583",
"8. c #8D958E",
"9. c #8F9096",
"0. c #939393",
"q. c #959599",
"w. c #979897",
"e. c #95989B",
"r. c #9A9A9A",
"t. c #9C9EA5",
"y. c #96AF86",
"u. c #9DA09E",
"i. c #9ABC8C",
"p. c #A38C8D",
"a. c #A99698",
"s. c #A9999E",
"d. c #A2A3A4",
"f. c #A2A4AB",
"g. c #ABABAB",
"h. c #A6A7B0",
"j. c #A6A8B1",
"k. c #AAABB2",
"l. c #A8B3A6",
"z. c #B1B2B2",
"x. c #B2B3BB",
"c. c #B7B9BA",
"v. c #B8BFB6",
"b. c #BABABB",
"n. c #BBBCC3",
"m. c #ACC2A3",
"M. c #B3C6AB",
"N. c #B1CAA3",
"B. c #B6CEA9",
"V. c #B9DFA0",
"C. c #A8E484",
"Z. c #BDE5A3",
"A. c #C0B6BA",
"S. c #C2C2C2",
"D. c #C4C5CB",
"F. c #C6C8CE",
"G. c #CBCBCB",
"H. c #C7C9D0",
"J. c #CACCD2",
"K. c #C9D9C2",
"L. c #CFD0D5",
"P. c #D2CCD0",
"I. c #D3D3D4",
"U. c #D4D5DA",
"Y. c #D5D9D6",
"T. c #D6D8DB",
"R. c #D8DBD7",
"E. c #DBDBDC",
"W. c #DDDEE2",
"Q. c #DFE1E2",
"!. c #E0E8DD",
"~. c #E2E2E4",
"^. c #E5E5EA",
"/. c #EAEAEC",
"(. c #ECECF0",
"). c #F2F2F2",
"_. c gray100",
"`. c None",
/* pixels */
"`.`.`.`.`.`.$ * - f f g h h h h g h h h g h g * `.`.`.`.`.`.`.`.",
"`.`.`.`.* f f g g g f f f f f f f f f f - f f - % `.`.`.`.`.`.`.",
"`.`.  - g g 0.c.S.S.G.G.P.I.I.P.z.z.z.z.z.z.s.- % `.`.`.`.`.`.`.",
"`.`.* f d.A.c.c.b.D.G.G.G.G.M.z.z.z.z.z.z.g.l.- $ `.`.`.`.`.`.`.",
"`.% f 5.g.5.5.w.0.r.S.G.G.v.g.g.g.z.z.z.g.z.g.- $ `.`.`.`.`.`.`.",
"  * M f.4.k.j.j.x.b.8.u.z.f.g.g.g.d.z.z.z.z.g.- $   `.`.`.`.`.`.",
"  * A ^ k.9.6.x.n.D.F.i.Y A s.l.g.g.g.z.S.P.S.f $   `.`.`.`.`.`.",
"$ - Z f.e.6.k.n.D.J.L.M.<.o.U 8.d.g.z.S.P.I.v.f o `.`.`.`.`.`.`.",
"% = q.t.3.q.n.p.b.U.T.J.$.*.C.) j N N N N M h % $ `.`.`.`.`.`.`.",
"% g f.5.6.n.p , 1 m W.W.m.#.*.-.X.6 o o o o o X   `.`.`.`.`.`.`.",
"$ A q.3.x.s., S D 3 P.^.Q.N.| @.&.C.c = $ . . . `.`.`.`.`.`.`.`.",
"$ 3.f.k.n.s.4 H ' a ^./.^.^.B.| @.$.,.Q 9 - % * * `.`.`.`.`.`.`.",
"$ z k.n.D.H.m J K } ^.^./.(./.U.O.+.@.=...0 f * * * `.`.`.`.`.`.",
"X * f.n.F.J.U.U.P.^.b.- 3.(.(.(.^.K. .+.%.;.v = % * * `.`.`.`.`.",
"  $ g j.F.L.W.W.^.^.k.* l /./.(./.(.^.V. .| :.W & * * `.`.`.`.`.",
"  X % C b / { l.U.^./.G.U.2.6.d.d.t.G.^./.!.Z.>.P % * * `.`.`.`.",
"`.  o % j ; r u R n.^.(././.5.x.(.q.q.(.(.^.^.^.T.C * * `.`.`.`.",
"`.`.  o $ 8 + q u S / W.(.(.G.5.q./.(.(.(.(.^.^.~.~.2.* * `.`.`.",
"`.`.`.  o o & O 2 y u ! W.(.^.g.U.3.T.(.(.(.^.^.~.~.Z * * `.`.`.",
"`.`.        . @ : > w t R W.(.w.F.W.0.b.T.(.^.~.W.2.* * * `.`.`.",
"`.f g f g f g f 9 7 + q r G E./.g h /.2.Z ^.^.~.P.G.Z * * `.`.`.",
"% f 2.0.0.0.0.a.e.5.x i 1 w F ^.S.g././.W.^.^.R./.~.I.r.* * `.`.",
"% N G.P.I.I.R.E.E.!.P.8.L 5 w y././.^./.^.^.W.W././.E.c.c.g * `.",
"% B I.I.R.E.E.Q.Q.~.~.Q.g.I s q Y./.^.^.^.^.J.^././.A d E.G.C * ",
"% B P.R.E.E.~.~././.!././.S.~ ! T ^.^.Q.~.F.R.W.!./.Q.P./.!.c.= ",
"% N Y.E.E.Q.~./././.).).).).T.{ _ l.~.W.P.G.J.U.b.S.^././.I.M * ",
"% N R.E.Q.!.~./.(.).).).).).)./.E.G.z.Y.c.2.D.F.n C Q.^.Q.A * * ",
"$ g S.G.P.I.R.R.E.Q.^.^.!.~.E.R.R.Y.S.q.M - = c.b.G.T.W.w.* * * ",
"o $ * * - - - - - - - - - f - - - - - % $ o X = t.G.G.g.f * * `.",
"  X o o o o o o o o o o o o o o o o o .     % * * 2.z.z * * `.`.",
"`.    `.`.`.`.`.`.`.`.`.`.`.`.`.`.`.`.      `.* * * = * * `.`.`.",
"`.`.`.`.`.`.`.`.`.`.`.`.`.`.`.`.`.`.`.`.`.`.`.* * * * `.`.`.`.`."
};
