/* XPM */
static char *liveusb_creator[] = {
/* columns rows colors chars-per-pixel */
"32 32 171 2",
"   c #161616",
".  c #1C1C1C",
"X  c #133807",
"o  c #193D08",
"O  c #1C331F",
"+  c #1F3A21",
"@  c #242424",
"#  c #2D2D2D",
"$  c #343434",
"%  c #353936",
"&  c #3C3C3C",
"*  c #633F31",
"=  c #1C420B",
"-  c #1E4B17",
";  c #214906",
":  c #2B4C08",
">  c #275204",
",  c #2E5102",
"<  c #2B5B0B",
"1  c #3E5F07",
"2  c #385C0A",
"3  c #315B14",
"4  c #2E640A",
"5  c #336B0C",
"6  c #36720E",
"7  c #38740F",
"8  c #376E11",
"9  c #3A7711",
"0  c #3D7B13",
"q  c #2B4B2C",
"w  c #2E5D2C",
"e  c #314A32",
"r  c #3D443E",
"t  c #3A563C",
"y  c #396428",
"u  c #557410",
"i  c #655139",
"p  c #537D38",
"a  c #444444",
"s  c #4B4B4B",
"d  c #435944",
"f  c #4C534D",
"g  c #4F4F50",
"h  c #525253",
"j  c #5E5E5E",
"k  c #655E41",
"l  c #7D5D4C",
"z  c #4C6F4C",
"x  c #487445",
"c  c #477843",
"v  c #5D755A",
"b  c #646464",
"n  c #676968",
"m  c #6B6C6B",
"M  c #727272",
"N  c #7C7C7C",
"B  c #80614F",
"V  c #378B00",
"C  c #3D9900",
"Z  c #608E13",
"A  c #49B700",
"S  c #6AA911",
"D  c #548534",
"F  c #5C8B3B",
"G  c #54D200",
"H  c #4E8143",
"J  c #588D4F",
"K  c #578354",
"L  c #578A52",
"P  c #5C8C57",
"I  c #608D41",
"U  c #618648",
"Y  c #659147",
"T  c #609655",
"R  c #679E5B",
"E  c #709954",
"W  c #73A55C",
"Q  c #648B64",
"!  c #779168",
"~  c #7D817D",
"^  c #6EA862",
"/  c #7DA067",
"(  c #71A865",
")  c #9E876E",
"_  c #82837F",
"`  c #859F79",
"'  c #85DD49",
"]  c #8BDD55",
"[  c #85E246",
"{  c #87E449",
"}  c #89E64C",
"|  c #8BEA4C",
" . c #8EE555",
".. c #93ED58",
"X. c #91F153",
"o. c #8CC374",
"O. c #94CF7B",
"+. c #9CD675",
"@. c #96D27D",
"#. c #A0DA7F",
"$. c #9AE866",
"%. c #9EF168",
"&. c #A0E177",
"*. c #A4E07D",
"=. c #A7EA7A",
"-. c #A8F375",
";. c #ADF47F",
":. c #838384",
">. c #858588",
",. c #8C8C8D",
"<. c #839583",
"1. c #8D958E",
"2. c #8E8E92",
"3. c #8F9096",
"4. c #939394",
"5. c #979897",
"6. c #959699",
"7. c #96989C",
"8. c #9A9A9B",
"9. c #A38C8D",
"0. c #A99698",
"q. c #A9999E",
"w. c #96AF86",
"e. c #9ABC8C",
"r. c #9DA09E",
"t. c #9C9EA5",
"y. c #A3A3A4",
"u. c #A3A4AB",
"i. c #ABACAC",
"p. c #A8B3A6",
"a. c #A6A7B0",
"s. c #A6A8B1",
"d. c #AAACB3",
"f. c #B2B2B2",
"g. c #B8BFB6",
"h. c #B3B4BC",
"j. c #B7B9BA",
"k. c #BABBBC",
"l. c #C0B6BA",
"z. c #A8E484",
"x. c #ADC3A3",
"c. c #B1CAA3",
"v. c #B3C6AB",
"b. c #B6CEA9",
"n. c #B9DFA0",
"m. c #BDE5A3",
"M. c #BBBCC3",
"N. c #C2C2C3",
"B. c #C4C5CB",
"V. c #C7C8CF",
"C. c #CBCBCC",
"Z. c #C9D9C2",
"A. c #C7C9D0",
"S. c #CBCCD2",
"D. c #D2CCD0",
"F. c #CFD0D5",
"G. c #D3D3D4",
"H. c #D6D9D6",
"J. c #D8DBD7",
"K. c #D5D5DA",
"L. c #D7D8DC",
"P. c #DBDCDC",
"I. c #E0E8DD",
"U. c #DDDEE2",
"Y. c #DFE1E2",
"T. c #E2E3E4",
"R. c #E5E5EA",
"E. c #EAEAEC",
"W. c #ECECF0",
"Q. c #F2F2F2",
"!. c None",
/* pixels */
"!.!.!.!.!.!.!.!.!.!.s s s s s s s s s s s s s !.!.!.!.!.!.!.!.!.",
"!.!.!.!.!.a a s s a a a a a a a a a a a a a a & !.!.!.!.!.!.!.!.",
"!.!.!.& s s 4.j.N.N.C.C.C.C.G.C.f.f.f.f.f.f.8.& !.!.!.!.!.!.!.!.",
"!.!.!.a y.N.j.j.k.C.C.C.C.C.N.i.f.f.f.f.f.f.i.& !.!.!.!.!.!.!.!.",
"!.!.a ,.i.,.,.5.4.8.k.C.C.k.i.i.i.f.f.f.f.f.i.& !.!.!.!.!.!.!.!.",
"!.$ j y.>.d.s.a.h.M.1.r.f.i.i.i.i.i.i.f.f.f.i.& !.!.!.!.!.!.!.!.",
"!.$ N :.d.3.2.h.M.B.A.e.P ~ y.i.i.i.i.f.B.G.N.a !.!.!.!.!.!.!.!.",
"!.& M u.7.2.s.M.B.S.G.v.-.@.K ,.y.i.f.N.G.G.j.a !.!.!.!.!.!.!.!.",
"!.% 7.t.:.6.M.9.l.K.L.S.| X.;.^ f b b b b j h @ !.!.!.!.!.!.!.!.",
"!.f u.,.2.M.* > , l U.U.x.} | %.O.q @ . . . .   !.!.!.!.!.!.!.!.",
"@ N 6.>.h.q.: V C 1 G.R.U.c.[ } ..z.c % !.!.!.!.!.!.!.!.!.!.!.!.",
"!.:.u.d.M.0.2 A G u T.R.E.R.b.' { | =.R r a !.!.!.!.!.!.!.!.!.!.",
"!.j d.h.B.S.B Z S ) R.R.E.W.E.H.+.[ { $.o.t a !.!.!.!.!.!.!.!.!.",
"!.$ u.M.B.F.L.K.D.R.k.& :.W.W.W.R.Z.] [  .#.x % !.!.!.!.!.!.!.!.",
"!.. s i.V.G.L.U.R.R.d.$ h E.W.W.E.E.T.n.] { &.T !.!.!.!.!.!.!.!.",
"!.!.# m v ! ` p.K.R.E.C.G.:.2.y.y.y.C.E.E.I.m.*.J !.!.!.!.!.!.!.",
"!.!.. # d = 8 0 I g.T.W.W.E.,.h.W.6.6.W.W.E.R.R.J.!.!.!.!.!.!.!.",
"!.!.!.. @ e o 5 9 0 / U.W.W.C.,.6.E.W.W.W.E.R.R.T.T.!.!.!.!.!.!.",
"!.!.!.!.!.. + X < 7 9 E U.W.T.i.K.>.L.W.W.E.R.R.U.Y.!.!.!.!.!.!.",
"!.!.!.!.!.!.!.O - ; 5 7 Y U.W.7.C.P.4.k.L.E.R.T.T._ !.!.!.!.!.!.",
"!.a s s s s s a r w = 4 6 F P.E.s g E.:.M R.R.T.C.C.m !.!.!.!.!.",
"!.a :.,.4.4.5.8.8.,.z y > 5 D T.N.i.E.E.T.R.R.H.R.T.H.8.!.!.!.!.",
"# b C.G.G.H.J.P.P.P.G.<.H 3 4 w.E.E.E.R.R.R.T.T.E.E.P.k.j.!.!.!.",
"# n G.G.H.P.P.T.T.T.T.T.i.L p 4 J.R.R.R.T.T.C.R.E.E.~ i P.C.m !.",
"# n G.H.P.P.T.T.R.E.E.E.E.C.Q W U R.T.T.T.C.L.U.T.E.U.G.E.T.j.!.",
"# b G.J.P.T.T.R.E.E.E.Q.Q.E.J.<.( x.T.U.G.S.S.K.k.N.R.E.E.G.!.!.",
"# b H.P.P.T.R.E.E.Q.Q.Q.Q.Q.Q.E.P.C.f.H.j.>.B.S.k n T.R.T.N !.!.",
"@ s N.C.G.G.H.J.P.P.T.T.T.T.P.P.J.G.N.4.j & % j.k.V.L.U.5.!.!.!.",
"!.. $ % % & & & & & & & & & & & & & & # @ . !.!.y.S.S.i.!.!.!.!.",
"!.!..                                   !.!.!.!.!.~ f.!.!.!.!.!.",
"!.!.!.!.!.!.!.!.!.!.!.!.!.!.!.!.!.!.!.!.!.!.!.!.!.!.!.!.!.!.!.!.",
"!.!.!.!.!.!.!.!.!.!.!.!.!.!.!.!.!.!.!.!.!.!.!.!.!.!.!.!.!.!.!.!."
};
