/* XPM */
static char *liveusb_creator___[] = {
/* columns rows colors chars-per-pixel */
"16 16 160 2",
"   c #1B1B1B",
".  c gray12",
"X  c gray14",
"o  c #2A2A2A",
"O  c #2C2C2C",
"+  c #2D2D2D",
"@  c gray18",
"#  c #2F2F2F",
"$  c #353535",
"%  c #393939",
"&  c #3A3A3A",
"*  c #383D3A",
"=  c #3C3C3C",
"-  c #3F3F3F",
";  c #264D06",
":  c #245409",
">  c #295716",
",  c #2F600F",
"<  c #3B7118",
"1  c #2A4B26",
"2  c #3E4E3E",
"3  c #375234",
"4  c #395337",
"5  c #456E29",
"6  c #467E21",
"7  c gray25",
"8  c #414141",
"9  c gray26",
"0  c #434343",
"q  c #4E4E4E",
"w  c #525353",
"e  c #6D4E40",
"r  c #7B5C52",
"t  c #50724A",
"y  c #5A6B5A",
"u  c #6A6A6A",
"i  c #6F7671",
"p  c gray44",
"a  c #727272",
"s  c #7C7C7C",
"d  c #8F7160",
"f  c #478408",
"g  c #5A894B",
"h  c #6C9551",
"j  c #6CA15B",
"k  c #7DA176",
"l  c #A2996C",
"z  c #81B66E",
"x  c #8CE251",
"c  c #94EA5C",
"v  c #89C969",
"b  c #93DB63",
"n  c #95DE65",
"m  c #A2DB7D",
"M  c #9EEB6E",
"N  c #808082",
"B  c #848484",
"V  c #848687",
"C  c #888888",
"Z  c #8A8B8A",
"A  c #8F8B88",
"S  c gray56",
"D  c #839083",
"F  c #93938B",
"G  c #8F9096",
"H  c #939393",
"J  c #939596",
"K  c #95969D",
"L  c #9899A0",
"P  c #9D9EA0",
"I  c #9C9EA5",
"U  c #A49AA0",
"Y  c #9EA0A7",
"T  c #A0A0A0",
"R  c #A1A1A0",
"E  c #A0A5A5",
"W  c #A4A8A5",
"Q  c #A7A7AA",
"!  c #A4A6AC",
"~  c #A9A9AB",
"^  c #AAAAAA",
"/  c #A9AAAC",
"(  c #AAABAE",
")  c #ACACAC",
"_  c #AABDA3",
"`  c #AAACB4",
"'  c gray69",
"]  c #B1B1B1",
"[  c #B2B2B2",
"{  c #B3B3B6",
"}  c #B3B7B7",
"|  c gray71",
" . c gray72",
".. c #B9B9B9",
"X. c gray74",
"o. c gray",
"O. c #C2DBB3",
"+. c #C8E5B8",
"@. c #BDBDC1",
"#. c #BBBCC4",
"$. c #C0C4C1",
"%. c #C1C1C4",
"&. c #C2C2C5",
"*. c #C3C3C6",
"=. c #C0C5C4",
"-. c #C4C4C7",
";. c #C6C6C6",
":. c #C2C3CA",
">. c #C6C6C9",
",. c #C6CACB",
"<. c #CACACA",
"1. c #C9C9CC",
"2. c #CBCBCE",
"3. c gray80",
"4. c #CECECE",
"5. c #D0D0D0",
"6. c #D2D3D2",
"7. c LightGray",
"8. c #D2D4D3",
"9. c #D2D3D4",
"0. c #D2D2D5",
"q. c gray83",
"w. c #D4D4D7",
"e. c #D5D8D6",
"r. c #D5D5D9",
"t. c #D4D6DB",
"y. c #D5D6DB",
"u. c gray85",
"i. c #D8DBDB",
"p. c gray86",
"a. c #D8D8DD",
"s. c #DAD8DD",
"d. c #DADEDC",
"f. c #DADCDE",
"g. c #DDDDDD",
"h. c #DCDDDF",
"j. c #DBDCE0",
"k. c #DFE0E2",
"l. c #E1E1E1",
"z. c #E2E2E2",
"x. c #E0E1E6",
"c. c #E4E4E4",
"v. c #E7E7E7",
"b. c #E3E3E8",
"n. c #E5E5E9",
"m. c #E6E6EA",
"M. c #E7E7EB",
"N. c #E7E7EC",
"B. c #E7E8EC",
"V. c gray91",
"C. c #E9E9E9",
"Z. c #EAEAEA",
"A. c #E8E8EC",
"S. c #E9E9ED",
"D. c #EBEBEF",
"F. c #ECECEC",
"G. c gray93",
"H. c #EEEEEE",
"J. c #ECECF0",
"K. c None",
/* pixels */
"K.K.K.7 - 8 0 0 0 9 8 = K.K.K.K.",
"K.% S  .;.<.3.;.[ ] ] s K.K.K.K.",
"K.C J ! E W X.) ) ' ] B K.K.K.K.",
"@ V L Y #.=.z D ^ | 5.H K.K.K.K.",
"$ I G e r t.n M t 0 0 + K.K.K.K.",
"w K U ; f s.j.b c j * K.K.K.K.K.",
"@ ` :.d l @.a.M.O.x v 2 K.K.K.K.",
"K.i } ,.x.{ Q %.>.h.+.m 4 K.K.K.",
"K.X 3 , h f.D.~ &.r.J.N.e.K.K.K.",
"K.K.K.1 : 6 i.-.*.1.A.N.h.K.K.K.",
"& u p a y > < d.N w.2.n.6.T K.K.",
"q 4.q.u.g.$.g 5 B.S.m.8.F.F ..K.",
"q 7.p.l.v.Z.z.k _ b.9.y.0.l.c.K.",
"0 7.p.z.V.G.H.C.u.o.Z ( A k.R K.",
". o O + @ # # # # o   K.P / K.K.",
"K.K.K.K.K.K.K.K.K.K.K.K.K.K.K.K."
};
