/* XPM */
static char *install-usb-gui-16[] = {
/* columns rows colors chars-per-pixel */
"16 16 177 2",
"   c black",
".  c gray5",
"X  c #191919",
"o  c gray11",
"O  c #1D1D1D",
"+  c #1E1E1E",
"@  c gray12",
"#  c gray13",
"$  c #232323",
"%  c #252525",
"&  c gray15",
"*  c #282828",
"=  c #2D2D2D",
"-  c gray18",
";  c gray19",
":  c #313131",
">  c #323232",
",  c gray20",
"<  c gray21",
"1  c #373737",
"2  c gray22",
"3  c #393939",
"4  c #3A3A3A",
"5  c #383D3A",
"6  c gray24",
"7  c #264D06",
"8  c #245409",
"9  c #295716",
"0  c #2A4B26",
"q  c #3E4E3E",
"w  c #375234",
"e  c #395337",
"r  c #2F600F",
"t  c #3B7118",
"y  c #456E29",
"u  c #467E21",
"i  c gray25",
"p  c #414141",
"a  c gray26",
"s  c #434343",
"d  c #444444",
"f  c gray31",
"g  c #535354",
"h  c #5B5C5A",
"j  c gray36",
"k  c #5A6B5A",
"l  c #50724A",
"z  c #6D4E40",
"x  c #7B5C52",
"c  c #6A6A6A",
"v  c #6E706E",
"b  c #6F7671",
"n  c gray44",
"m  c #727272",
"M  c #7C7C7C",
"N  c #478408",
"B  c #5A894B",
"V  c #6C9551",
"C  c #6CA15B",
"Z  c #7DA176",
"A  c #8F7160",
"S  c #81B66E",
"D  c #A2996C",
"F  c #89C969",
"G  c #93DB63",
"H  c #95DE65",
"J  c #8CE251",
"K  c #94EA5C",
"L  c #9EEB6E",
"P  c #A2DB7D",
"I  c #808082",
"U  c #848484",
"Y  c #848687",
"T  c #888888",
"R  c #8A8B8A",
"E  c #8F8B88",
"W  c #8C8C8B",
"Q  c gray56",
"!  c #839083",
"~  c #8F9096",
"^  c #93938B",
"/  c #939393",
"(  c #939596",
")  c #95969D",
"_  c #9899A0",
"`  c #9D9EA0",
"'  c #9C9EA5",
"]  c #9EA0A7",
"[  c #A49AA0",
"{  c #A0A0A0",
"}  c #A1A1A0",
"|  c #A0A5A5",
" . c #A7A7AA",
".. c #A4A6AC",
"X. c #A4A8A5",
"o. c #A9A9AB",
"O. c #AAAAAA",
"+. c #A9AAAC",
"@. c #AAABAE",
"#. c #ACACAC",
"$. c #AAACB4",
"%. c #AABDA3",
"&. c gray69",
"*. c #B1B1B1",
"=. c #B2B2B2",
"-. c #B3B3B6",
";. c #B3B7B7",
":. c gray71",
">. c gray72",
",. c #B9B9B9",
"<. c gray74",
"1. c gray",
"2. c #BBBCC4",
"3. c #BDBDC1",
"4. c #C2DBB3",
"5. c #C8E5B8",
"6. c #C1C1C4",
"7. c #C2C2C5",
"8. c #C3C3C6",
"9. c #C0C4C1",
"0. c #C0C5C4",
"q. c #C4C4C7",
"w. c #C6C6C6",
"e. c #C2C3CA",
"r. c #C6C6C9",
"t. c #C6CACB",
"y. c #CACACA",
"u. c #C9C9CC",
"i. c #CBCBCE",
"p. c gray80",
"a. c #CECECE",
"s. c #D0D0D0",
"d. c #D2D3D2",
"f. c LightGray",
"g. c #D2D2D5",
"h. c #D2D3D4",
"j. c #D2D4D3",
"k. c gray83",
"l. c #D4D4D7",
"z. c #D5D5D9",
"x. c #D4D6DB",
"c. c #D5D6DB",
"v. c #D5D8D6",
"b. c gray85",
"n. c #D8DBDB",
"m. c gray86",
"M. c #D8D8DD",
"N. c #DAD8DD",
"B. c #DADCDE",
"V. c #DADEDC",
"C. c #DDDDDD",
"Z. c #DCDDDF",
"A. c #DBDCE0",
"S. c #DFE0E2",
"D. c #E1E1E1",
"F. c #E2E2E2",
"G. c #E0E1E6",
"H. c #E4E4E4",
"J. c #E7E7E7",
"K. c #E3E3E8",
"L. c #E5E5E9",
"P. c #E6E6EA",
"I. c #E7E7EB",
"U. c #E7E7EC",
"Y. c #E7E8EC",
"T. c gray91",
"R. c #E9E9E9",
"E. c #EAEAEA",
"W. c #E8E8EC",
"Q. c #E9E9ED",
"!. c #EBEBEF",
"~. c #ECECEC",
"^. c gray93",
"/. c #EEEEEE",
"(. c #ECECF0",
"). c gray100",
"_. c None",
/* pixels */
"_._.s s i i d d d s d 5 , _._._.",
"_.3 Q :.w.p.p.w.=.&.*.M * _._._.",
"= T ( ..]  .<.#.#.&.=.U $ _._._.",
"= Y _ ] 2.4.Z ! O.-.s./ $ _._._.",
"1 ' ~ z x c.H L l s d = o _._._.",
"g ) [ 7 N N.A.G K C 5 @ : _._._.",
"= $.e.A D 3.N.U.4.J F q : _._._.",
". b ;.t.G.-. .6.r.Z.5.P e : _._.",
"_.% w r V B.!.O.6.z.!.U.v.v _._.",
"_.  X 0 8 u n.r.q.u.I.I.Z.h : _.",
"3 c n m k 9 t Z.I l.i.I.d.} : _.",
"f i.j.b.Z.9.B y W.W.I.j.~.^ ,.j ",
"f j.C.D.T.T.D.Z %.I.h.c.g.D.H.Q ",
"d j.m.F.T.~./.T.b.1.T +.E S.{ : ",
"@ = = : : : : : : = @ % ` +.1 _.",
"_._._._._._._._._._._.: : 1 _._."
};
