/* XPM */
static char *liveusb_creator___[] = {
/* columns rows colors chars-per-pixel */
"16 16 103 2",
"   c #282828",
".  c #313131",
"X  c #323232",
"o  c gray20",
"O  c #343131",
"+  c #343434",
"@  c #353535",
"#  c gray21",
"$  c #383636",
"%  c #3B3636",
"&  c #383837",
"*  c #383937",
"=  c gray22",
"-  c #393939",
";  c #3A3A3A",
":  c gray23",
">  c #3B3C3A",
",  c #3C3D3B",
"<  c #3C3C3C",
"1  c #3C3D3C",
"2  c gray24",
"3  c #3E3F3D",
"4  c #3F3F3E",
"5  c #5B0405",
"6  c #7F0F12",
"7  c #611415",
"8  c #6D1012",
"9  c #6B1214",
"0  c #651919",
"q  c #781012",
"w  c #751A1B",
"e  c #4E2021",
"r  c #412D2C",
"t  c #662021",
"y  c gray25",
"u  c #414141",
"i  c gray26",
"p  c #434343",
"a  c #444444",
"s  c gray27",
"d  c gray28",
"f  c #484848",
"g  c #484948",
"h  c #494948",
"j  c #494A49",
"k  c #4C4C4C",
"l  c #4C4D4C",
"z  c gray30",
"x  c #4D4E4D",
"c  c gray31",
"v  c #505050",
"b  c #515151",
"n  c gray33",
"m  c #5A5A5A",
"M  c gray36",
"N  c #626262",
"B  c #646464",
"V  c #6C6C6C",
"C  c gray43",
"Z  c gray45",
"A  c #747474",
"S  c #767676",
"D  c #777777",
"F  c #767878",
"G  c gray48",
"H  c #830B0C",
"J  c #980304",
"K  c #831012",
"L  c #971515",
"P  c #BB0E10",
"I  c #B11313",
"U  c #B71617",
"Y  c #BA1416",
"T  c #CE0B0E",
"R  c #DC0304",
"E  c #C11313",
"W  c #D01B1B",
"Q  c #E00506",
"!  c #E80507",
"~  c #EF0405",
"^  c #F20303",
"/  c #F40202",
"(  c #F60203",
")  c #888989",
"_  c #88898A",
"`  c #91908E",
"'  c #939393",
"]  c gray58",
"[  c #A3A5A7",
"{  c #A9A6A2",
"}  c #AFAFAF",
"|  c #B3B2AE",
" . c #B0B0B1",
".. c #B0B1B1",
"X. c #B6B7B7",
"o. c #B9BAB9",
"O. c #C8C9CF",
"+. c gray86",
"@. c #DCDDE0",
"#. c #E6E7E8",
"$. c #E8E9EA",
"%. c #EDEDEE",
"&. c None",
/* pixels */
"&.&.&.< + &.&.&.&.&.&.&.&.&.&.&.",
"&.&.< * * # &.&.&.&.&.&.&.&.&.&.",
"&.p 4 , > > 4 o &.&.&.&.&.&.&.&.",
"> h a s o Y Y $ < &.&.&.&.&.&.&.",
"o x d O P Q ! H % u &.&.&.&.&.&.",
"&.u d 9 ^ I E J 7 c p &.&.&.&.&.",
"&.  x 6 / L W R 8 u m < &.&.&.&.",
"&.&.; t 5 ( ( T e b F M s &.&.&.",
"&.&.&.: w K 6 0 B C G + h &.&.&.",
"&.&.&.&.u = o N A F ; + x &.&.&.",
"&.&.&.&.&.p N Z A u ; c [ ) &.&.",
"&.&.&.&.&.&.x V l h n X.@. .) &.",
"&.&.&.&.&.&.&.h x c } %.#.` O.F ",
"&.&.&.&.&.&.&.&.&.&.] | { $. .&.",
"&.&.&.&.&.&.&.&.&.&.&.' +.o.&.&.",
"&.&.&.&.&.&.&.&.&.&.&.&.&.&.&.&."
};
