/* XPM */
static char *liveusb_creator___[] = {
/* columns rows colors chars-per-pixel */
"16 16 102 2",
"   c #282828",
".  c #342021",
"X  c #342C2C",
"o  c #333130",
"O  c #323131",
"+  c #323232",
"@  c gray20",
"#  c #343434",
"$  c #353535",
"%  c gray21",
"&  c #383635",
"*  c #383837",
"=  c #383937",
"-  c gray22",
";  c #393939",
":  c gray23",
">  c #3A3C39",
",  c #3B3D3A",
"<  c #3C3C3C",
"1  c gray24",
"2  c #3E3F3C",
"3  c #3F3F3E",
"4  c #570506",
"5  c #461617",
"6  c #481516",
"7  c #531113",
"8  c #7D0A0D",
"9  c #670D10",
"0  c #6E1B1C",
"q  c #462A2A",
"w  c #502425",
"e  c #483535",
"r  c #40403F",
"t  c gray25",
"y  c #414140",
"u  c #414141",
"i  c gray26",
"p  c #434343",
"a  c #434543",
"s  c #444444",
"d  c gray28",
"f  c #484847",
"g  c #484848",
"h  c #484948",
"j  c #494949",
"k  c #4C4C4C",
"l  c #4D4D4C",
"z  c gray30",
"x  c #4F4F4E",
"c  c gray31",
"v  c #505050",
"b  c #515151",
"n  c gray33",
"m  c #5A5A5A",
"M  c gray36",
"N  c #626262",
"B  c #676464",
"V  c #6C6C6C",
"C  c gray43",
"Z  c gray45",
"A  c #747474",
"S  c #767676",
"D  c #777777",
"F  c #777878",
"G  c gray48",
"H  c #9C0102",
"J  c #970A0A",
"K  c #8C1A1B",
"L  c #881D1E",
"P  c #941517",
"I  c #9D191A",
"U  c #AA0101",
"Y  c #B90D11",
"T  c #A31015",
"R  c #C10808",
"E  c #CE0B0E",
"W  c #D00808",
"Q  c #D6090B",
"!  c #C50D10",
"~  c #EA0D0D",
"^  c #F90202",
"/  c #FC0000",
"(  c #FF1515",
")  c #89898A",
"_  c #918F8E",
"`  c #939393",
"'  c #959595",
"]  c #A3A5A7",
"[  c #A9A6A2",
"{  c #AEAEAE",
"}  c #B2B1AD",
"|  c #AFB0B1",
" . c #B0B0B1",
".. c #B6B6B6",
"X. c #B9BAB8",
"o. c #C8C9CF",
"O. c #DADADA",
"+. c #DBDCE0",
"@. c #E6E6E7",
"#. c #E8E8E9",
"$. c gray93",
"%. c None",
/* pixels */
"%.%.%.< $ %.%.%.%.%.%.%.%.%.%.%.",
"%.%.< = = $ %.%.%.%.%.%.%.%.%.%.",
"%.y r > > > r O %.%.%.%.%.%.%.%.",
"< f a a o 6 5 $ < %.%.%.%.%.%.%.",
"# l f X T Y E 8 e y %.%.%.%.%.%.",
"%.y g 7 ! U R H 0 v y %.%.%.%.%.",
"%.  l 9 Q J E ~ L y m < %.%.%.%.",
"%.%.: . 4 / ( / q v D M s %.%.%.",
"%.%.%.< K P I w B Z G @ d %.%.%.",
"%.%.%.%.y : O N A S : $ k %.%.%.",
"%.%.%.%.%.y N Z Z y : v ] ) %.%.",
"%.%.%.%.%.%.l V l j v ..+. .) %.",
"%.%.%.%.%.%.%.j l c { $.@._ o.F ",
"%.%.%.%.%.%.%.%.%.%.' } [ #.| %.",
"%.%.%.%.%.%.%.%.%.%.%.` O.X.%.%.",
"%.%.%.%.%.%.%.%.%.%.%.%.%.%.%.%."
};
